<svg version="1" xmlns="http://www.w3.org/2000/svg" width="349.333" height="349.333" viewBox="0 0 262.000000 262.000000"><path d="M114.3 23.1c-23 3.9-40.8 13.2-58.1 30.6L47 63l-.1-9.3c-.1-5-.1-9.6.1-10.2.3-1.8-2.9-3.1-7-2.7-3.2.3-4.4.9-4.8 2.4-.3 1.1-1 1.7-1.8 1.4-2-.8-4.4.4-4.4 2.1 0 .8-.6 1.3-1.2 1-.7-.2-2.3-.1-3.6.4-2 .7-2.2 1.5-2.2 7.3 0 7.4-.5 7.9-7 8.2-6.6.2-8.7 1.1-9.3 4-.8 4.5 1.8 5.8 10.4 5.4 4.7-.2 6.2 1.8 6.4 8.7.2 5.6 1.5 7.6 4.5 7 .8-.1 2.2.6 3.1 1.7 1.4 1.7 1.4 2.5.3 6.4-6 19.9-6.3 43.2-.8 63.2 10.7 38.8 42.7 69.1 81.3 77 9.4 1.9 26.1 2.3 35.6.9 38.9-5.9 72.6-35.5 84.8-74.4 4.5-14.4 6.1-30.8 4.3-46-.8-6.6-3.8-20.4-5.5-24.8-.9-2.2-.8-3.3.4-5 .8-1.2 2.1-2.2 2.8-2.3.6 0 2-.2 2.9-.2 1.5-.2 1.7-1.2 1.7-6.3-.1-7.7 1-8.9 8.5-9.2 6.2-.3 9-2.3 7.9-5.5-1-3.1-3.6-4.2-9.4-4.2-6.6 0-7.1-.6-7.4-8.8-.3-6-.4-6.3-3.6-6.5-1.3-.1-2.9-.7-3.5-1.5-.5-.8-2.2-1.5-3.7-1.5-1.6-.1-2.9-.9-3.3-2-.4-1.3-1.6-1.7-5.4-1.7-5.9 0-5.9.1-5.6 12.7.1 5.1 0 9.3-.3 9.3-.4 0-4-3.5-8.1-7.6-12.2-12.3-27.4-21.4-44-26.5-7.8-2.4-8.3-2.5-16.5-3.4-11.1-1.2-19.3-1-29.2.6zm106.8 17.8c.3.1.6 4.5.6 9.8.1 5.4.2 15.6.2 22.8.1 7.1.2 13.8.2 14.8-.1 1.4-.8 1.8-3.3 1.5l-3.3-.3-.3-24.6-.3-24.6 2.8.3c1.5.1 3.1.2 3.4.3zM44.9 68l.2 25h-2.9c-1.7 0-3.2-.6-3.4-1.3-.2-.6-.5-11.9-.7-25L37.9 43h6.9l.1 25zm183.3-22.3c.2 1 .3 10.6.3 21.3 0 18.8-.1 19.5-2 19.5s-2-.8-2.3-21.3c-.3-20.5-.3-21.2 1.6-21.2 1.1 0 2.1.8 2.4 1.7zm-193 2.5c.2.7.5 10.1.7 21 .1 13.9-.1 19.8-.9 20.3-2.7 1.7-3.3-1.9-3.6-21.9C31 47.9 31.1 47 32.9 47c1 0 2.1.6 2.3 1.2zm199.9 9c.1 12.5.1 25.1 0 26-.1.3-1 .4-2.1.1-1.8-.5-1.9-1.6-2.2-16.8-.3-18.9-.3-19.5 2.3-19.5 1.7 0 1.9.8 2 10.2zm-206 4.5c0 6.5.2 14.3.3 17.3.1 3 .1 6-.1 6.7-.5 1.3-3.6 1.1-4-.3-.8-2.9-.7-34.5.2-34.8 3.2-1.4 3.5-.6 3.6 11.1zm221.7 1.2c1.3.1 1.7 4 .5 4.2-4.1.6-9.9.2-11.2-.8-1.5-1.2-1.4-1.4.3-2.7 1-.9 3.3-1.3 5.5-1.1 2 .1 4.2.3 4.9.4zm-38.7.9c0 .4.2 1.5.4 2.4.3 1.6-.8 1.8-10.3 1.9-5.9 0-18.3.2-27.7.4-9.3.1-38.8.6-65.5 1-26.7.4-51 .8-54 .9-3 .2-6.1.1-6.8-.2-1.3-.4-1.7-4.1-.4-4.3 1.4-.2 24.6-.7 71.2-1.3 25.5-.4 46.5-.8 46.6-.9.6-.6 46.4-.4 46.5.1zM20.4 66.9c.4.5.3 1.6 0 2.5-.5 1.2-2 1.6-5.9 1.6-5.5 0-7.1-1-6.1-3.5.6-1.7 11.1-2.2 12-.6zm166.5 6.3c.6 1.5.5 2.8-.3 3.8-.7.8-3.2 5.4-5.5 10.2-2.3 4.8-6.9 11.8-10.2 15.7-3.2 3.9-5.9 7.8-5.9 8.7 0 2.7-3 8.1-7 12.6-3 3.4-3.9 5.5-4.5 9.8-.7 5.6-4.7 17.3-6.6 19.6-.7.9-.7 1.9.1 3.3 1.1 2.2 2.5 2.7 3.4 1.2 1-1.5 9.4-5.1 12-5.1 6.8 0 12 6.1 11.9 13.9-.1 5.9-3.4 13.2-11.7 26-3.6 5.6-6.6 10.3-6.6 10.5 0 .2 3.2 2.4 7 5 5.5 3.7 7 5.1 7 7.1 0 2.3-.4 2.5-4 2.5-2.2 0-6.8-1.1-10-2.5-3.4-1.4-7.1-2.3-8.6-2.1-2.4.5-2.5.4-2-3.9.2-2.5.8-4.9 1.1-5.5.9-1.4 5.5-19.4 5.1-19.8-.2-.1-1.6.4-3.2 1.3-2 1-6.2 1.5-13.9 1.5-6 0-12.4.1-14.2.1-1.7 0-4.6-.7-6.4-1.6-3.1-1.6-3.2-1.6-2.4.1.4 1.1 1.8 5.3 3 9.4 1.2 4.1 2.7 8.8 3.4 10.3.6 1.6 1.1 4.2 1.1 5.8 0 2.6-.3 2.9-3.3 2.9-1.7 0-5.3 1.1-7.9 2.5-6.1 3.2-13.8 3.5-13.8.5 0-2.3 1.8-4.1 8.9-9 2.8-1.9 4.9-4 4.6-4.7-.2-.6-2.6-4.2-5.3-8-12.4-17-15.7-26.3-12.2-34.1 3.5-7.7 11.4-9.1 20.7-3.6 4.1 2.4 4.2 2.4 4.8.4.4-1.3-.6-5.1-2.8-10.3-2-4.5-3.9-10.5-4.3-13.2-.6-4-1.6-6-5.6-10.5-2.7-3-5.4-7.3-6-9.5-.6-2.2-3-6-5.3-8.5-5.1-5.6-9.4-11.9-13.5-19.6-1.7-3.2-3.6-6.6-4.2-7.5-.6-.9-.8-2.7-.5-4.1.6-2.3 1-2.4 7.2-2.4 3.6 0 6.5.3 6.5.7 0 .3-1.1 1.6-2.5 2.9-3 2.8-2.4 4.2 3.7 8.8 2.5 1.8 5.7 5.2 7.2 7.6 1.4 2.3 3.9 4.9 5.4 5.8 1.5.9 5.3 4.2 8.5 7.2 3.2 3.1 6.3 5.6 6.9 5.6.5 0 2.4 1.2 4.1 2.6 3.5 2.9 5 1.7 1.9-1.6-3-3.2-4.2-8.8-3.3-15.8.8-7.1 2.3-8.8 8.8-9.8 4.4-.6 7.5 0 11.1 2.2 1.7 1.1 2.2 2.4 2.2 5.7 0 2.4.5 4.8 1.1 5.4 1.3 1.3-.2 7-3.3 12.1-2.1 3.4-1.7 5.7.5 3 .6-.8 3.2-2.9 5.7-4.6 2.5-1.7 6.7-5.3 9.4-8.1s5.7-5.3 6.6-5.6c1-.3 2.3-1.8 2.9-3.3 1.2-2.9 4.4-6.5 10.5-12.1l3.8-3.3-2.6-2.7c-1.4-1.5-2.6-3-2.6-3.4 0-.4 2.9-.7 6.5-.7 5.9 0 6.7.2 7.4 2.2z"/></svg>